<svg height="512pt" viewBox="0 0 512 512" width="512pt" xmlns="http://www.w3.org/2000/svg"><path d="m378.226562 423.882812-86.917968 88.117188h220.691406c0-45.753906-60.910156-54.703125-133.773438-88.117188zm0 0" fill="#839594"/><path d="m0 512 220.691406-.160156-86.917968-88.117188c-72.863282 33.421875-133.773438 42.523438-133.773438 88.277344zm0 0" fill="#839594"/><path d="m414.898438 485.515625c-4.875 0-8.828126-3.953125-8.828126-8.824219v-105.933594c0-4.871093 3.953126-8.828124 8.828126-8.828124 4.871093 0 8.824218 3.957031 8.824218 8.828124v105.933594c0 4.871094-3.953125 8.824219-8.824218 8.824219zm0 0" fill="#556080"/><path d="m97.101562 485.515625c-4.871093 0-8.824218-3.953125-8.824218-8.824219v-105.933594c0-4.871093 3.953125-8.828124 8.824218-8.828124 4.875 0 8.828126 3.957031 8.828126 8.828124v105.933594c0 4.871094-3.953126 8.824219-8.828126 8.824219zm0 0" fill="#556080"/><path d="m479.972656 168.316406c-1.402344-3.125-2.921875-6.269531-4.554687-9.417968 0 0-41.480469-85.066407-110.902344-131.753907-26.667969-17.9375-58.59375-27.144531-91.097656-27.144531h-34.824219c-32.503906 0-64.441406 9.207031-91.109375 27.144531-69.421875 46.6875-110.902344 131.753907-110.902344 131.753907-1.632812 3.148437-3.144531 6.292968-4.554687 9.417968-29.246094 65.058594-12.527344 140.992188 38.132812 192.34375l124.019532 125.738282c38.71875-2.53125 77.417968-2.980469 114.335937 9.4375l133.332031-135.175782c50.652344-51.351562 67.371094-127.285156 38.125-192.34375zm0 0" fill="#e7eced"/><path d="m292.574219 512 149.273437-151.339844c33.757813-34.214844 52.328125-79.351562 52.390625-124.902344-2.339843-76.808593-108.066406-138.65625-238.238281-138.65625s-235.898438 61.847657-238.238281 138.65625c.0625 45.550782 18.632812 90.6875 52.390625 124.902344l149.273437 151.339844zm0 0" fill="#afb6bb"/><path d="m234.195312 512-138.902343-176.128906c-26.632813-27.011719-42-63.257813-42.210938-99.554688 2.453125-61.265625 108.699219-103.902344 202.917969-103.902344s200.464844 42.636719 202.917969 103.902344c-.210938 36.296875-15.578125 72.550782-42.210938 99.554688l-138.902343 176.128906zm0 0" fill="#839594"/><path d="m256 353.367188c-9.746094 0-17.65625-7.910157-17.65625-17.652344v-17.921875c0-25.085938 11.953125-51.816407 31.984375-64.734375 7.730469-4.996094 12.277344-13.460938 12.144531-22.660156-.191406-14.132813-12.632812-27.179688-26.09375-27.363282-.113281 0-.230468 0-.34375 0-6.628906 0-13.011718 2.699219-18 7.617188-5.410156 5.339844-8.519531 12.675781-8.519531 20.136718 0 9.746094-7.90625 17.65625-17.652344 17.65625-9.746093 0-17.65625-7.910156-17.65625-17.65625 0-16.84375 6.9375-33.34375 19.039063-45.269531 11.65625-11.5 26.8125-17.796875 42.78125-17.796875h.847656c32.546875.460938 60.441406 28.929688 60.910156 62.183594.300782 21.441406-10.292968 41.1875-28.320312 52.824219-9.753906 6.292969-15.808594 22.21875-15.808594 35.0625v17.921875c0 9.742187-7.910156 17.652344-17.65625 17.652344zm0 0" fill="#fff"/><path d="m238.34375 388.414062h35.3125v35.308594h-35.3125zm0 0" fill="#fff"/><path d="m256 459.035156c-29.21875 0-56.089844-10.539062-77.984375-18.273437l56.179687 71.238281h43.601563l56.1875-71.238281c-21.894531 7.734375-48.765625 18.273437-77.984375 18.273437zm0 0" fill="#6c797a"/></svg>